# xmcd
# 
# Track frame offsets:
#     150
#     25538
#     55497
#     68246
#     93403
#     126387
#     153495
#     182679
#     197339
#     215621
#     225621
#     256221
# 
# Disc length: 3860
# 
# Revision: 3
# Processed by: cddbd v1.5.2PL0 Copyright (c) Steve Scherf et al.
# Submitted via: BonkEnc v1.0.8
# 
DISCID=a20f120c
DTITLE=Lars Danielsson - Libera Me
DYEAR=2004
DGENRE=Contemporary Jazz
TTITLE0=Asta
TTITLE1=Suffering
TTITLE2=The Teacher
TTITLE3=Newborn Broken
TTITLE4=Libera Me
TTITLE5=Shimmering
TTITLE6=Granada
TTITLE7=Both Sides Now
TTITLE8=Forever You
TTITLE9=Bird Through The Wall
TTITLE10=Cornelia
TTITLE11=Bonus Track: Asnah
EXTD=YEAR: 2004
EXTT0=
EXTT1=
EXTT2=
EXTT3=
EXTT4=
EXTT5=
EXTT6=
EXTT7=
EXTT8=
EXTT9=
EXTT10=
EXTT11=
PLAYORDER=
